<mxfile host="app.diagrams.net" modified="2023-10-02T15:47:52.576Z" agent="Mozilla/5.0 (Windows NT 10.0; Win64; x64) AppleWebKit/537.36 (KHTML, like Gecko) Chrome/117.0.0.0 Safari/537.36" etag="uULvCFAyBPfyGUfRqdWX" version="22.0.0" type="google" pages="2">
  <diagram name="Page-1" id="xkwYMV2k4qskFJ_tZ61Y">
    <mxGraphModel grid="1" page="1" gridSize="10" guides="1" tooltips="1" connect="1" arrows="1" fold="1" pageScale="1" pageWidth="827" pageHeight="1169" math="0" shadow="0">
      <root>
        <mxCell id="0" />
        <mxCell id="1" parent="0" />
        <mxCell id="CVQQ1LoVoQst2m9JADNQ-8" value="" style="rounded=0;whiteSpace=wrap;html=1;gradientColor=none;fillStyle=hatch;" vertex="1" parent="1">
          <mxGeometry x="220" y="30" width="700" height="1060" as="geometry" />
        </mxCell>
        <mxCell id="CVQQ1LoVoQst2m9JADNQ-72" value="" style="rounded=0;whiteSpace=wrap;html=1;strokeColor=default;fontFamily=Helvetica;fontSize=12;fontColor=default;fillColor=default;labelBackgroundColor=none;labelBorderColor=none;gradientColor=none;fillStyle=hatch;" vertex="1" parent="1">
          <mxGeometry x="256" y="720" width="630" height="340" as="geometry" />
        </mxCell>
        <mxCell id="CVQQ1LoVoQst2m9JADNQ-26" value="" style="rounded=0;whiteSpace=wrap;html=1;strokeColor=default;fontFamily=Helvetica;fontSize=12;fontColor=default;fillColor=default;labelBackgroundColor=none;labelBorderColor=none;gradientColor=none;fillStyle=hatch;" vertex="1" parent="1">
          <mxGeometry x="256" y="290" width="630" height="400" as="geometry" />
        </mxCell>
        <mxCell id="CVQQ1LoVoQst2m9JADNQ-23" value="" style="rounded=0;whiteSpace=wrap;html=1;strokeColor=default;fontFamily=Helvetica;fontSize=12;fontColor=default;fillColor=default;labelBackgroundColor=none;labelBorderColor=none;gradientColor=none;fillStyle=hatch;" vertex="1" parent="1">
          <mxGeometry x="255" y="90" width="630" height="170" as="geometry" />
        </mxCell>
        <mxCell id="CVQQ1LoVoQst2m9JADNQ-1" value="Students" style="shape=umlActor;verticalLabelPosition=bottom;verticalAlign=top;html=1;outlineConnect=0;" vertex="1" parent="1">
          <mxGeometry x="130" y="625" width="30" height="60" as="geometry" />
        </mxCell>
        <mxCell id="CVQQ1LoVoQst2m9JADNQ-2" value="SPSO" style="shape=umlActor;verticalLabelPosition=bottom;verticalAlign=top;html=1;outlineConnect=0;" vertex="1" parent="1">
          <mxGeometry x="1000" y="470" width="30" height="60" as="geometry" />
        </mxCell>
        <mxCell id="CVQQ1LoVoQst2m9JADNQ-9" value="Log in" style="ellipse;whiteSpace=wrap;html=1;rounded=0;strokeColor=default;fontFamily=Helvetica;fontSize=14;fontColor=default;fillColor=default;" vertex="1" parent="1">
          <mxGeometry x="539.99" y="120" width="100" height="60" as="geometry" />
        </mxCell>
        <mxCell id="CVQQ1LoVoQst2m9JADNQ-11" value="View user &lt;br&gt;printing history" style="ellipse;whiteSpace=wrap;html=1;rounded=0;strokeColor=default;fontFamily=Helvetica;fontSize=14;fontColor=default;fillColor=default;" vertex="1" parent="1">
          <mxGeometry x="354" y="760" width="120" height="80" as="geometry" />
        </mxCell>
        <mxCell id="CVQQ1LoVoQst2m9JADNQ-12" value="Purchase additional pages" style="ellipse;whiteSpace=wrap;html=1;rounded=0;strokeColor=default;fontFamily=Helvetica;fontSize=14;fontColor=default;fillColor=default;" vertex="1" parent="1">
          <mxGeometry x="333" y="610" width="110" height="70" as="geometry" />
        </mxCell>
        <mxCell id="CVQQ1LoVoQst2m9JADNQ-13" value="View printing history" style="ellipse;whiteSpace=wrap;html=1;rounded=0;strokeColor=default;fontFamily=Helvetica;fontSize=14;fontColor=default;fillColor=default;" vertex="1" parent="1">
          <mxGeometry x="510" y="830" width="120" height="80" as="geometry" />
        </mxCell>
        <mxCell id="CVQQ1LoVoQst2m9JADNQ-14" value="Select printing properties" style="ellipse;whiteSpace=wrap;html=1;rounded=0;strokeColor=default;fontFamily=Helvetica;fontSize=14;fontColor=default;fillColor=default;" vertex="1" parent="1">
          <mxGeometry x="518.99" y="565" width="121.01" height="60" as="geometry" />
        </mxCell>
        <mxCell id="CVQQ1LoVoQst2m9JADNQ-15" value="Choose available printers" style="ellipse;whiteSpace=wrap;html=1;rounded=0;strokeColor=default;fontFamily=Helvetica;fontSize=14;fontColor=default;fillColor=default;" vertex="1" parent="1">
          <mxGeometry x="558.13" y="490" width="120" height="60" as="geometry" />
        </mxCell>
        <mxCell id="CVQQ1LoVoQst2m9JADNQ-16" value="View printing limit" style="ellipse;whiteSpace=wrap;html=1;rounded=0;strokeColor=default;fontFamily=Helvetica;fontSize=14;fontColor=default;fillColor=default;" vertex="1" parent="1">
          <mxGeometry x="520" y="350" width="120" height="50" as="geometry" />
        </mxCell>
        <mxCell id="CVQQ1LoVoQst2m9JADNQ-17" value="Upload documents" style="ellipse;whiteSpace=wrap;html=1;rounded=0;strokeColor=default;fontFamily=Helvetica;fontSize=14;fontColor=default;fillColor=default;" vertex="1" parent="1">
          <mxGeometry x="560" y="410" width="120" height="60" as="geometry" />
        </mxCell>
        <mxCell id="CVQQ1LoVoQst2m9JADNQ-19" value="View and Export report of printing system" style="ellipse;whiteSpace=wrap;html=1;rounded=0;strokeColor=default;fontFamily=Helvetica;fontSize=14;fontColor=default;fillColor=default;" vertex="1" parent="1">
          <mxGeometry x="650" y="760" width="135" height="80" as="geometry" />
        </mxCell>
        <mxCell id="CVQQ1LoVoQst2m9JADNQ-24" value="&lt;font style=&quot;font-size: 20px;&quot;&gt;Log in / log out module&lt;/font&gt;" style="text;html=1;strokeColor=none;fillColor=none;align=center;verticalAlign=middle;whiteSpace=wrap;rounded=0;fontSize=20;fontFamily=Helvetica;fontColor=default;" vertex="1" parent="1">
          <mxGeometry x="481.87" y="90" width="216.25" height="30" as="geometry" />
        </mxCell>
        <mxCell id="CVQQ1LoVoQst2m9JADNQ-27" value="&lt;font style=&quot;font-size: 20px;&quot;&gt;Printing service module&lt;/font&gt;" style="text;html=1;strokeColor=none;fillColor=none;align=center;verticalAlign=middle;whiteSpace=wrap;rounded=0;fontSize=20;fontFamily=Helvetica;fontColor=default;" vertex="1" parent="1">
          <mxGeometry x="470.87" y="290" width="216.25" height="30" as="geometry" />
        </mxCell>
        <mxCell id="CVQQ1LoVoQst2m9JADNQ-28" value="Print document" style="ellipse;whiteSpace=wrap;html=1;rounded=0;strokeColor=default;fontFamily=Helvetica;fontSize=14;fontColor=default;fillColor=default;" vertex="1" parent="1">
          <mxGeometry x="330" y="457.5" width="113" height="60" as="geometry" />
        </mxCell>
        <mxCell id="CVQQ1LoVoQst2m9JADNQ-30" value="Manage printing service" style="ellipse;whiteSpace=wrap;html=1;rounded=0;strokeColor=default;fontFamily=Helvetica;fontSize=14;fontColor=default;fillColor=default;" vertex="1" parent="1">
          <mxGeometry x="687.12" y="457.5" width="125.13" height="65" as="geometry" />
        </mxCell>
        <mxCell id="CVQQ1LoVoQst2m9JADNQ-41" value="" style="endArrow=none;html=1;rounded=0;fontFamily=Helvetica;fontSize=12;fontColor=default;entryX=0;entryY=0.5;entryDx=0;entryDy=0;exitX=1;exitY=0.3333333333333333;exitDx=0;exitDy=0;exitPerimeter=0;" edge="1" parent="1" source="CVQQ1LoVoQst2m9JADNQ-1" target="CVQQ1LoVoQst2m9JADNQ-9">
          <mxGeometry width="50" height="50" relative="1" as="geometry">
            <mxPoint x="150" y="220" as="sourcePoint" />
            <mxPoint x="200" y="170" as="targetPoint" />
            <Array as="points">
              <mxPoint x="230" y="150" />
            </Array>
          </mxGeometry>
        </mxCell>
        <mxCell id="CVQQ1LoVoQst2m9JADNQ-42" value="" style="endArrow=none;html=1;rounded=0;fontFamily=Helvetica;fontSize=12;fontColor=default;entryX=0;entryY=0.5;entryDx=0;entryDy=0;exitX=1;exitY=0.3333333333333333;exitDx=0;exitDy=0;exitPerimeter=0;" edge="1" parent="1" source="CVQQ1LoVoQst2m9JADNQ-1" target="CVQQ1LoVoQst2m9JADNQ-43">
          <mxGeometry width="50" height="50" relative="1" as="geometry">
            <mxPoint x="120" y="160" as="sourcePoint" />
            <mxPoint x="564.0600000000006" y="220" as="targetPoint" />
            <Array as="points">
              <mxPoint x="240" y="220" />
            </Array>
          </mxGeometry>
        </mxCell>
        <mxCell id="CVQQ1LoVoQst2m9JADNQ-43" value="Log out" style="ellipse;whiteSpace=wrap;html=1;rounded=0;strokeColor=default;fontFamily=Helvetica;fontSize=14;fontColor=default;fillColor=default;" vertex="1" parent="1">
          <mxGeometry x="539.99" y="190" width="100" height="60" as="geometry" />
        </mxCell>
        <mxCell id="CVQQ1LoVoQst2m9JADNQ-44" value="" style="endArrow=none;html=1;rounded=0;fontFamily=Helvetica;fontSize=12;fontColor=default;exitX=1;exitY=0.5;exitDx=0;exitDy=0;entryX=0;entryY=0.3333333333333333;entryDx=0;entryDy=0;entryPerimeter=0;" edge="1" parent="1" source="CVQQ1LoVoQst2m9JADNQ-9" target="CVQQ1LoVoQst2m9JADNQ-2">
          <mxGeometry width="50" height="50" relative="1" as="geometry">
            <mxPoint x="1010" y="280" as="sourcePoint" />
            <mxPoint x="1070" y="560" as="targetPoint" />
            <Array as="points">
              <mxPoint x="900" y="180" />
            </Array>
          </mxGeometry>
        </mxCell>
        <mxCell id="CVQQ1LoVoQst2m9JADNQ-46" value="" style="endArrow=none;html=1;rounded=0;fontFamily=Helvetica;fontSize=12;fontColor=default;exitX=1;exitY=0.5;exitDx=0;exitDy=0;entryX=0;entryY=0.3333333333333333;entryDx=0;entryDy=0;entryPerimeter=0;" edge="1" parent="1" source="CVQQ1LoVoQst2m9JADNQ-43" target="CVQQ1LoVoQst2m9JADNQ-2">
          <mxGeometry width="50" height="50" relative="1" as="geometry">
            <mxPoint x="740" y="240" as="sourcePoint" />
            <mxPoint x="790" y="190" as="targetPoint" />
            <Array as="points">
              <mxPoint x="900" y="280" />
            </Array>
          </mxGeometry>
        </mxCell>
        <mxCell id="CVQQ1LoVoQst2m9JADNQ-48" value="" style="endArrow=none;html=1;rounded=0;fontFamily=Helvetica;fontSize=12;fontColor=default;exitX=1;exitY=0.5;exitDx=0;exitDy=0;entryX=0;entryY=0.3333333333333333;entryDx=0;entryDy=0;entryPerimeter=0;" edge="1" parent="1" source="CVQQ1LoVoQst2m9JADNQ-30" target="CVQQ1LoVoQst2m9JADNQ-2">
          <mxGeometry width="50" height="50" relative="1" as="geometry">
            <mxPoint x="830" y="590" as="sourcePoint" />
            <mxPoint x="880" y="540" as="targetPoint" />
          </mxGeometry>
        </mxCell>
        <mxCell id="CVQQ1LoVoQst2m9JADNQ-67" value="" style="endArrow=none;html=1;rounded=0;fontFamily=Helvetica;fontSize=12;fontColor=default;entryX=0;entryY=0.5;entryDx=0;entryDy=0;" edge="1" parent="1" source="CVQQ1LoVoQst2m9JADNQ-1" target="CVQQ1LoVoQst2m9JADNQ-28">
          <mxGeometry width="50" height="50" relative="1" as="geometry">
            <mxPoint x="140" y="490" as="sourcePoint" />
            <mxPoint x="190" y="440" as="targetPoint" />
          </mxGeometry>
        </mxCell>
        <mxCell id="CVQQ1LoVoQst2m9JADNQ-73" value="&lt;font style=&quot;font-size: 20px;&quot;&gt;Printing log module&lt;/font&gt;" style="text;html=1;strokeColor=none;fillColor=none;align=center;verticalAlign=middle;whiteSpace=wrap;rounded=0;fontSize=20;fontFamily=Helvetica;fontColor=default;" vertex="1" parent="1">
          <mxGeometry x="461.88" y="720" width="216.25" height="30" as="geometry" />
        </mxCell>
        <mxCell id="CVQQ1LoVoQst2m9JADNQ-88" value="" style="endArrow=none;html=1;rounded=0;fontFamily=Helvetica;fontSize=12;fontColor=default;entryX=0;entryY=0.5;entryDx=0;entryDy=0;exitX=1;exitY=0.3333333333333333;exitDx=0;exitDy=0;exitPerimeter=0;" edge="1" parent="1" source="CVQQ1LoVoQst2m9JADNQ-1" target="CVQQ1LoVoQst2m9JADNQ-11">
          <mxGeometry width="50" height="50" relative="1" as="geometry">
            <mxPoint x="140" y="710" as="sourcePoint" />
            <mxPoint x="190" y="660" as="targetPoint" />
            <Array as="points">
              <mxPoint x="230" y="800" />
            </Array>
          </mxGeometry>
        </mxCell>
        <mxCell id="CVQQ1LoVoQst2m9JADNQ-89" value="View printing history of &lt;br&gt;student(s)" style="ellipse;whiteSpace=wrap;html=1;rounded=0;strokeColor=default;fontFamily=Helvetica;fontSize=14;fontColor=default;fillColor=default;" vertex="1" parent="1">
          <mxGeometry x="398.99" y="960" width="120" height="80" as="geometry" />
        </mxCell>
        <mxCell id="CVQQ1LoVoQst2m9JADNQ-90" value="View printing &lt;br&gt;history of the&lt;br&gt;whole system" style="ellipse;whiteSpace=wrap;html=1;rounded=0;strokeColor=default;fontFamily=Helvetica;fontSize=14;fontColor=default;fillColor=default;" vertex="1" parent="1">
          <mxGeometry x="600" y="960" width="130" height="80" as="geometry" />
        </mxCell>
        <mxCell id="CVQQ1LoVoQst2m9JADNQ-92" value="" style="endArrow=block;html=1;rounded=0;fontFamily=Helvetica;fontSize=12;fontColor=default;exitX=0.5;exitY=0;exitDx=0;exitDy=0;entryX=0.5;entryY=1;entryDx=0;entryDy=0;endFill=0;" edge="1" parent="1" source="CVQQ1LoVoQst2m9JADNQ-89" target="CVQQ1LoVoQst2m9JADNQ-13">
          <mxGeometry width="50" height="50" relative="1" as="geometry">
            <mxPoint x="667" y="1030" as="sourcePoint" />
            <mxPoint x="549" y="1090" as="targetPoint" />
            <Array as="points">
              <mxPoint x="570" y="940" />
            </Array>
          </mxGeometry>
        </mxCell>
        <mxCell id="CVQQ1LoVoQst2m9JADNQ-93" value="" style="endArrow=none;html=1;rounded=0;fontFamily=Helvetica;fontSize=12;fontColor=default;exitX=1;exitY=0.5;exitDx=0;exitDy=0;entryX=0;entryY=0.3333333333333333;entryDx=0;entryDy=0;entryPerimeter=0;" edge="1" parent="1" source="CVQQ1LoVoQst2m9JADNQ-13" target="CVQQ1LoVoQst2m9JADNQ-2">
          <mxGeometry width="50" height="50" relative="1" as="geometry">
            <mxPoint x="770" y="970" as="sourcePoint" />
            <mxPoint x="820" y="920" as="targetPoint" />
            <Array as="points">
              <mxPoint x="910" y="870" />
            </Array>
          </mxGeometry>
        </mxCell>
        <mxCell id="CVQQ1LoVoQst2m9JADNQ-94" value="" style="endArrow=none;html=1;rounded=0;fontFamily=Helvetica;fontSize=12;fontColor=default;exitX=1;exitY=0.5;exitDx=0;exitDy=0;entryX=0;entryY=0.3333333333333333;entryDx=0;entryDy=0;entryPerimeter=0;" edge="1" parent="1" source="CVQQ1LoVoQst2m9JADNQ-19" target="CVQQ1LoVoQst2m9JADNQ-2">
          <mxGeometry width="50" height="50" relative="1" as="geometry">
            <mxPoint x="727" y="990" as="sourcePoint" />
            <mxPoint x="1082" y="530" as="targetPoint" />
            <Array as="points">
              <mxPoint x="910" y="800" />
            </Array>
          </mxGeometry>
        </mxCell>
        <mxCell id="CVQQ1LoVoQst2m9JADNQ-95" value="" style="endArrow=block;html=1;rounded=0;fontFamily=Helvetica;fontSize=12;fontColor=default;exitX=0.5;exitY=0;exitDx=0;exitDy=0;endFill=0;entryX=0.5;entryY=1;entryDx=0;entryDy=0;" edge="1" parent="1" source="CVQQ1LoVoQst2m9JADNQ-90" target="CVQQ1LoVoQst2m9JADNQ-13">
          <mxGeometry width="50" height="50" relative="1" as="geometry">
            <mxPoint x="549" y="1090" as="sourcePoint" />
            <mxPoint x="660" y="1020" as="targetPoint" />
            <Array as="points">
              <mxPoint x="570" y="940" />
            </Array>
          </mxGeometry>
        </mxCell>
        <mxCell id="VE3gpV294wPED2xoj8d8-2" value="" style="endArrow=none;html=1;rounded=0;entryX=0;entryY=0.5;entryDx=0;entryDy=0;exitX=1;exitY=0.3333333333333333;exitDx=0;exitDy=0;exitPerimeter=0;" edge="1" parent="1" source="CVQQ1LoVoQst2m9JADNQ-1" target="CVQQ1LoVoQst2m9JADNQ-12">
          <mxGeometry width="50" height="50" relative="1" as="geometry">
            <mxPoint x="250" y="470" as="sourcePoint" />
            <mxPoint x="300" y="420" as="targetPoint" />
          </mxGeometry>
        </mxCell>
        <mxCell id="VE3gpV294wPED2xoj8d8-8" value="" style="endArrow=none;html=1;rounded=0;entryX=1;entryY=0.5;entryDx=0;entryDy=0;exitX=0;exitY=0.3333333333333333;exitDx=0;exitDy=0;exitPerimeter=0;" edge="1" parent="1" source="VE3gpV294wPED2xoj8d8-16" target="CVQQ1LoVoQst2m9JADNQ-12">
          <mxGeometry width="50" height="50" relative="1" as="geometry">
            <mxPoint x="140" y="410" as="sourcePoint" />
            <mxPoint x="290" y="380" as="targetPoint" />
          </mxGeometry>
        </mxCell>
        <mxCell id="VE3gpV294wPED2xoj8d8-10" value="" style="endArrow=classic;html=1;rounded=0;entryX=0;entryY=0.5;entryDx=0;entryDy=0;dashed=1;exitX=1;exitY=0.5;exitDx=0;exitDy=0;" edge="1" parent="1" source="CVQQ1LoVoQst2m9JADNQ-28" target="CVQQ1LoVoQst2m9JADNQ-17">
          <mxGeometry width="50" height="50" relative="1" as="geometry">
            <mxPoint x="540" y="420" as="sourcePoint" />
            <mxPoint x="640" y="370" as="targetPoint" />
          </mxGeometry>
        </mxCell>
        <mxCell id="VE3gpV294wPED2xoj8d8-11" value="&amp;lt;&amp;lt;Include&amp;gt;&amp;gt;" style="edgeLabel;html=1;align=center;verticalAlign=middle;resizable=0;points=[];" vertex="1" connectable="0" parent="VE3gpV294wPED2xoj8d8-10">
          <mxGeometry x="-0.2567" y="-1" relative="1" as="geometry">
            <mxPoint x="3" y="-4" as="offset" />
          </mxGeometry>
        </mxCell>
        <mxCell id="VE3gpV294wPED2xoj8d8-12" value="" style="endArrow=classic;html=1;rounded=0;exitX=1;exitY=0.5;exitDx=0;exitDy=0;entryX=0;entryY=0.5;entryDx=0;entryDy=0;dashed=1;" edge="1" parent="1" source="CVQQ1LoVoQst2m9JADNQ-28" target="CVQQ1LoVoQst2m9JADNQ-15">
          <mxGeometry width="50" height="50" relative="1" as="geometry">
            <mxPoint x="585" y="445" as="sourcePoint" />
            <mxPoint x="716" y="365" as="targetPoint" />
          </mxGeometry>
        </mxCell>
        <mxCell id="VE3gpV294wPED2xoj8d8-13" value="&amp;lt;&amp;lt;Include&amp;gt;&amp;gt;" style="edgeLabel;html=1;align=center;verticalAlign=middle;resizable=0;points=[];" vertex="1" connectable="0" parent="VE3gpV294wPED2xoj8d8-12">
          <mxGeometry x="-0.2567" y="-1" relative="1" as="geometry">
            <mxPoint x="3" y="-1" as="offset" />
          </mxGeometry>
        </mxCell>
        <mxCell id="VE3gpV294wPED2xoj8d8-14" value="" style="endArrow=classic;html=1;rounded=0;exitX=1;exitY=0.5;exitDx=0;exitDy=0;dashed=1;entryX=0;entryY=0.5;entryDx=0;entryDy=0;" edge="1" parent="1" source="CVQQ1LoVoQst2m9JADNQ-28" target="CVQQ1LoVoQst2m9JADNQ-14">
          <mxGeometry width="50" height="50" relative="1" as="geometry">
            <mxPoint x="595" y="455" as="sourcePoint" />
            <mxPoint x="726" y="375" as="targetPoint" />
          </mxGeometry>
        </mxCell>
        <mxCell id="VE3gpV294wPED2xoj8d8-15" value="&amp;lt;&amp;lt;Include&amp;gt;&amp;gt;" style="edgeLabel;html=1;align=center;verticalAlign=middle;resizable=0;points=[];" vertex="1" connectable="0" parent="VE3gpV294wPED2xoj8d8-14">
          <mxGeometry x="-0.2567" y="-1" relative="1" as="geometry">
            <mxPoint x="4" y="9" as="offset" />
          </mxGeometry>
        </mxCell>
        <mxCell id="VE3gpV294wPED2xoj8d8-16" value="BKPay" style="shape=umlActor;verticalLabelPosition=bottom;verticalAlign=top;html=1;outlineConnect=0;" vertex="1" parent="1">
          <mxGeometry x="1000" y="625" width="30" height="60" as="geometry" />
        </mxCell>
        <mxCell id="q2RCQgsXeSQ2oGLCaszM-1" value="HCMUT_SSO" style="shape=umlActor;verticalLabelPosition=bottom;verticalAlign=top;html=1;outlineConnect=0;" vertex="1" parent="1">
          <mxGeometry x="1000" y="160" width="30" height="60" as="geometry" />
        </mxCell>
        <mxCell id="q2RCQgsXeSQ2oGLCaszM-2" value="" style="endArrow=none;html=1;rounded=0;fontFamily=Helvetica;fontSize=12;fontColor=default;exitX=0;exitY=0.3333333333333333;exitDx=0;exitDy=0;exitPerimeter=0;entryX=1;entryY=0.5;entryDx=0;entryDy=0;" edge="1" parent="1" source="q2RCQgsXeSQ2oGLCaszM-1" target="CVQQ1LoVoQst2m9JADNQ-43">
          <mxGeometry width="50" height="50" relative="1" as="geometry">
            <mxPoint x="775" y="583" as="sourcePoint" />
            <mxPoint x="1010" y="655" as="targetPoint" />
            <Array as="points">
              <mxPoint x="900" y="220" />
            </Array>
          </mxGeometry>
        </mxCell>
        <mxCell id="q2RCQgsXeSQ2oGLCaszM-3" value="" style="endArrow=none;html=1;rounded=0;fontFamily=Helvetica;fontSize=12;fontColor=default;exitX=0;exitY=0.3333333333333333;exitDx=0;exitDy=0;exitPerimeter=0;" edge="1" parent="1" source="q2RCQgsXeSQ2oGLCaszM-1">
          <mxGeometry width="50" height="50" relative="1" as="geometry">
            <mxPoint x="1010" y="360" as="sourcePoint" />
            <mxPoint x="640" y="150" as="targetPoint" />
            <Array as="points">
              <mxPoint x="900" y="150" />
            </Array>
          </mxGeometry>
        </mxCell>
        <mxCell id="mHHhlB5j_t_u7f-T70gl-2" value="&lt;h1 style=&quot;border-color: var(--border-color);&quot;&gt;Printing Service Module&lt;/h1&gt;" style="rounded=0;whiteSpace=wrap;html=1;strokeWidth=2;fillColor=#5E5E5E;fontColor=#FCFCFC;strokeColor=none;" vertex="1" parent="1">
          <mxGeometry x="575" y="40" width="310" height="40" as="geometry" />
        </mxCell>
        <mxCell id="mHHhlB5j_t_u7f-T70gl-3" value="" style="endArrow=classic;html=1;rounded=0;entryX=0;entryY=0.5;entryDx=0;entryDy=0;dashed=1;exitX=1;exitY=0.5;exitDx=0;exitDy=0;" edge="1" parent="1" source="CVQQ1LoVoQst2m9JADNQ-28" target="CVQQ1LoVoQst2m9JADNQ-16">
          <mxGeometry width="50" height="50" relative="1" as="geometry">
            <mxPoint x="453" y="498" as="sourcePoint" />
            <mxPoint x="534" y="410" as="targetPoint" />
          </mxGeometry>
        </mxCell>
        <mxCell id="mHHhlB5j_t_u7f-T70gl-4" value="&amp;lt;&amp;lt;Include&amp;gt;&amp;gt;" style="edgeLabel;html=1;align=center;verticalAlign=middle;resizable=0;points=[];" connectable="0" vertex="1" parent="mHHhlB5j_t_u7f-T70gl-3">
          <mxGeometry x="-0.2567" y="-1" relative="1" as="geometry">
            <mxPoint x="3" y="-4" as="offset" />
          </mxGeometry>
        </mxCell>
      </root>
    </mxGraphModel>
  </diagram>
  <diagram id="n1ElUr0DgXKzG2nxO4ar" name="Page-2">
    <mxGraphModel grid="1" page="1" gridSize="10" guides="1" tooltips="1" connect="1" arrows="1" fold="1" pageScale="1" pageWidth="827" pageHeight="1169" math="0" shadow="0">
      <root>
        <mxCell id="0" />
        <mxCell id="1" parent="0" />
        <mxCell id="2nvxnJHDYDKnR72fFEk4-1" value="Printing Log Module" style="swimlane;html=1;childLayout=stackLayout;resizeParent=1;resizeParentMax=0;startSize=20;whiteSpace=wrap;rounded=0;shadow=0;glass=0;swimlaneLine=1;fillStyle=hatch;fillColor=#FFFFFF;" vertex="1" parent="1">
          <mxGeometry x="160" y="104" width="1150" height="750" as="geometry" />
        </mxCell>
        <mxCell id="2nvxnJHDYDKnR72fFEk4-2" value="Student" style="swimlane;html=1;startSize=20;" vertex="1" parent="2nvxnJHDYDKnR72fFEk4-1">
          <mxGeometry y="20" width="260" height="730" as="geometry" />
        </mxCell>
        <mxCell id="2nvxnJHDYDKnR72fFEk4-12" style="edgeStyle=orthogonalEdgeStyle;rounded=0;orthogonalLoop=1;jettySize=auto;html=1;entryX=0.5;entryY=0;entryDx=0;entryDy=0;exitX=0.5;exitY=1;exitDx=0;exitDy=0;" edge="1" parent="2nvxnJHDYDKnR72fFEk4-2" source="2nvxnJHDYDKnR72fFEk4-5" target="2nvxnJHDYDKnR72fFEk4-7">
          <mxGeometry relative="1" as="geometry">
            <mxPoint x="71" y="80" as="sourcePoint" />
          </mxGeometry>
        </mxCell>
        <mxCell id="2nvxnJHDYDKnR72fFEk4-5" value="" style="ellipse;html=1;shape=startState;fillColor=#000000;strokeColor=#000000;" vertex="1" parent="2nvxnJHDYDKnR72fFEk4-2">
          <mxGeometry x="56" y="40" width="30" height="30" as="geometry" />
        </mxCell>
        <mxCell id="2nvxnJHDYDKnR72fFEk4-61" style="edgeStyle=orthogonalEdgeStyle;rounded=0;orthogonalLoop=1;jettySize=auto;html=1;exitX=0.5;exitY=1;exitDx=0;exitDy=0;entryX=0.5;entryY=0;entryDx=0;entryDy=0;" edge="1" parent="2nvxnJHDYDKnR72fFEk4-2" source="2nvxnJHDYDKnR72fFEk4-7" target="2nvxnJHDYDKnR72fFEk4-60">
          <mxGeometry relative="1" as="geometry" />
        </mxCell>
        <mxCell id="2nvxnJHDYDKnR72fFEk4-7" value="Click on &quot;Profile&quot;" style="rounded=1;arcSize=10;whiteSpace=wrap;html=1;align=center;" vertex="1" parent="2nvxnJHDYDKnR72fFEk4-2">
          <mxGeometry x="21" y="110" width="100" height="40" as="geometry" />
        </mxCell>
        <mxCell id="2nvxnJHDYDKnR72fFEk4-20" style="edgeStyle=orthogonalEdgeStyle;rounded=0;orthogonalLoop=1;jettySize=auto;html=1;exitX=0.5;exitY=1;exitDx=0;exitDy=0;entryX=0.5;entryY=0;entryDx=0;entryDy=0;" edge="1" parent="2nvxnJHDYDKnR72fFEk4-2" source="2nvxnJHDYDKnR72fFEk4-13" target="2nvxnJHDYDKnR72fFEk4-19">
          <mxGeometry relative="1" as="geometry" />
        </mxCell>
        <mxCell id="2nvxnJHDYDKnR72fFEk4-13" value="Choose a specific page size" style="rounded=1;arcSize=10;whiteSpace=wrap;html=1;align=center;" vertex="1" parent="2nvxnJHDYDKnR72fFEk4-2">
          <mxGeometry x="141" y="355.5" width="100" height="40" as="geometry" />
        </mxCell>
        <mxCell id="2nvxnJHDYDKnR72fFEk4-19" value="&lt;font style=&quot;font-size: 12px;&quot;&gt;View History&lt;/font&gt;" style="rounded=1;arcSize=10;whiteSpace=wrap;html=1;align=center;" vertex="1" parent="2nvxnJHDYDKnR72fFEk4-2">
          <mxGeometry x="21" y="465.5" width="100" height="40" as="geometry" />
        </mxCell>
        <mxCell id="2nvxnJHDYDKnR72fFEk4-60" value="Click on &quot;History&quot;" style="rounded=1;arcSize=10;whiteSpace=wrap;html=1;align=center;" vertex="1" parent="2nvxnJHDYDKnR72fFEk4-2">
          <mxGeometry x="21" y="190" width="100" height="40" as="geometry" />
        </mxCell>
        <mxCell id="2nvxnJHDYDKnR72fFEk4-64" style="edgeStyle=orthogonalEdgeStyle;rounded=0;orthogonalLoop=1;jettySize=auto;html=1;exitX=1;exitY=0.5;exitDx=0;exitDy=0;exitPerimeter=0;entryX=0.5;entryY=0;entryDx=0;entryDy=0;" edge="1" parent="2nvxnJHDYDKnR72fFEk4-2" source="2nvxnJHDYDKnR72fFEk4-57" target="2nvxnJHDYDKnR72fFEk4-13">
          <mxGeometry relative="1" as="geometry" />
        </mxCell>
        <mxCell id="2nvxnJHDYDKnR72fFEk4-66" style="edgeStyle=orthogonalEdgeStyle;rounded=0;orthogonalLoop=1;jettySize=auto;html=1;exitX=0.5;exitY=1;exitDx=0;exitDy=0;exitPerimeter=0;entryX=0.5;entryY=0;entryDx=0;entryDy=0;" edge="1" parent="2nvxnJHDYDKnR72fFEk4-2" source="2nvxnJHDYDKnR72fFEk4-57" target="2nvxnJHDYDKnR72fFEk4-19">
          <mxGeometry relative="1" as="geometry" />
        </mxCell>
        <mxCell id="2nvxnJHDYDKnR72fFEk4-57" value="" style="strokeWidth=2;html=1;shape=mxgraph.flowchart.decision;whiteSpace=wrap;" vertex="1" parent="2nvxnJHDYDKnR72fFEk4-2">
          <mxGeometry x="51" y="305.5" width="40" height="40" as="geometry" />
        </mxCell>
        <mxCell id="2nvxnJHDYDKnR72fFEk4-65" value="Filter page size" style="text;html=1;align=center;verticalAlign=middle;resizable=0;points=[];autosize=1;strokeColor=none;fillColor=none;" vertex="1" parent="2nvxnJHDYDKnR72fFEk4-2">
          <mxGeometry x="85" y="302.5" width="100" height="30" as="geometry" />
        </mxCell>
        <mxCell id="2nvxnJHDYDKnR72fFEk4-67" value="Do not filter&lt;br&gt;page size" style="text;html=1;align=center;verticalAlign=middle;resizable=0;points=[];autosize=1;strokeColor=none;fillColor=none;" vertex="1" parent="2nvxnJHDYDKnR72fFEk4-2">
          <mxGeometry x="-2" y="355.5" width="80" height="40" as="geometry" />
        </mxCell>
        <mxCell id="2nvxnJHDYDKnR72fFEk4-62" style="edgeStyle=orthogonalEdgeStyle;rounded=0;orthogonalLoop=1;jettySize=auto;html=1;exitX=1;exitY=0.5;exitDx=0;exitDy=0;entryX=0;entryY=0.5;entryDx=0;entryDy=0;" edge="1" parent="2nvxnJHDYDKnR72fFEk4-1" source="2nvxnJHDYDKnR72fFEk4-60" target="2nvxnJHDYDKnR72fFEk4-58">
          <mxGeometry relative="1" as="geometry" />
        </mxCell>
        <mxCell id="2nvxnJHDYDKnR72fFEk4-54" style="edgeStyle=orthogonalEdgeStyle;rounded=0;orthogonalLoop=1;jettySize=auto;html=1;exitX=0.5;exitY=1;exitDx=0;exitDy=0;entryX=0.5;entryY=0;entryDx=0;entryDy=0;" edge="1" parent="2nvxnJHDYDKnR72fFEk4-1" source="2nvxnJHDYDKnR72fFEk4-50" target="2nvxnJHDYDKnR72fFEk4-58">
          <mxGeometry relative="1" as="geometry">
            <mxPoint x="1170" y="210" as="targetPoint" />
          </mxGeometry>
        </mxCell>
        <mxCell id="2nvxnJHDYDKnR72fFEk4-82" style="edgeStyle=orthogonalEdgeStyle;rounded=0;orthogonalLoop=1;jettySize=auto;html=1;exitX=0.5;exitY=1;exitDx=0;exitDy=0;entryX=0.5;entryY=0;entryDx=0;entryDy=0;entryPerimeter=0;" edge="1" parent="2nvxnJHDYDKnR72fFEk4-1" source="2nvxnJHDYDKnR72fFEk4-58" target="2nvxnJHDYDKnR72fFEk4-57">
          <mxGeometry relative="1" as="geometry" />
        </mxCell>
        <mxCell id="2nvxnJHDYDKnR72fFEk4-104" style="edgeStyle=orthogonalEdgeStyle;rounded=0;orthogonalLoop=1;jettySize=auto;html=1;exitX=0;exitY=0.5;exitDx=0;exitDy=0;entryX=1;entryY=0.5;entryDx=0;entryDy=0;" edge="1" parent="2nvxnJHDYDKnR72fFEk4-1" source="2nvxnJHDYDKnR72fFEk4-102" target="2nvxnJHDYDKnR72fFEk4-103">
          <mxGeometry relative="1" as="geometry" />
        </mxCell>
        <mxCell id="2nvxnJHDYDKnR72fFEk4-3" value="System" style="swimlane;html=1;startSize=20;" vertex="1" parent="2nvxnJHDYDKnR72fFEk4-1">
          <mxGeometry x="260" y="20" width="210" height="730" as="geometry" />
        </mxCell>
        <mxCell id="2nvxnJHDYDKnR72fFEk4-58" value="Access database" style="rounded=1;arcSize=10;whiteSpace=wrap;html=1;align=center;" vertex="1" parent="2nvxnJHDYDKnR72fFEk4-3">
          <mxGeometry x="55" y="190" width="100" height="40" as="geometry" />
        </mxCell>
        <mxCell id="2nvxnJHDYDKnR72fFEk4-103" value="Record the order" style="rounded=1;arcSize=10;whiteSpace=wrap;html=1;align=center;" vertex="1" parent="2nvxnJHDYDKnR72fFEk4-3">
          <mxGeometry x="55" y="494" width="100" height="40" as="geometry" />
        </mxCell>
        <mxCell id="2nvxnJHDYDKnR72fFEk4-112" value="" style="ellipse;html=1;shape=endState;fillColor=#000000;strokeColor=#000000;" vertex="1" parent="2nvxnJHDYDKnR72fFEk4-3">
          <mxGeometry x="85" y="666" width="40" height="40" as="geometry" />
        </mxCell>
        <mxCell id="2nvxnJHDYDKnR72fFEk4-114" style="edgeStyle=orthogonalEdgeStyle;rounded=0;orthogonalLoop=1;jettySize=auto;html=1;exitX=0.5;exitY=1;exitDx=0;exitDy=0;entryX=0;entryY=0.5;entryDx=0;entryDy=0;" edge="1" parent="2nvxnJHDYDKnR72fFEk4-1" source="2nvxnJHDYDKnR72fFEk4-19" target="2nvxnJHDYDKnR72fFEk4-112">
          <mxGeometry relative="1" as="geometry" />
        </mxCell>
        <mxCell id="2nvxnJHDYDKnR72fFEk4-118" style="edgeStyle=orthogonalEdgeStyle;rounded=0;orthogonalLoop=1;jettySize=auto;html=1;exitX=0.5;exitY=1;exitDx=0;exitDy=0;entryX=0.25;entryY=0.5;entryDx=0;entryDy=0;entryPerimeter=0;" edge="1" parent="2nvxnJHDYDKnR72fFEk4-1" source="2nvxnJHDYDKnR72fFEk4-103" target="2nvxnJHDYDKnR72fFEk4-106">
          <mxGeometry relative="1" as="geometry">
            <Array as="points">
              <mxPoint x="365" y="576" />
              <mxPoint x="545" y="576" />
            </Array>
          </mxGeometry>
        </mxCell>
        <mxCell id="2nvxnJHDYDKnR72fFEk4-119" style="edgeStyle=orthogonalEdgeStyle;rounded=0;orthogonalLoop=1;jettySize=auto;html=1;exitX=1;exitY=0.5;exitDx=0;exitDy=0;entryX=0.512;entryY=0.51;entryDx=0;entryDy=0;entryPerimeter=0;" edge="1" parent="2nvxnJHDYDKnR72fFEk4-1" source="2nvxnJHDYDKnR72fFEk4-58" target="2nvxnJHDYDKnR72fFEk4-115">
          <mxGeometry relative="1" as="geometry">
            <Array as="points">
              <mxPoint x="740" y="230" />
            </Array>
          </mxGeometry>
        </mxCell>
        <mxCell id="2nvxnJHDYDKnR72fFEk4-122" style="edgeStyle=orthogonalEdgeStyle;rounded=0;orthogonalLoop=1;jettySize=auto;html=1;entryX=1;entryY=0.5;entryDx=0;entryDy=0;" edge="1" parent="2nvxnJHDYDKnR72fFEk4-1" source="2nvxnJHDYDKnR72fFEk4-109" target="2nvxnJHDYDKnR72fFEk4-112">
          <mxGeometry relative="1" as="geometry">
            <Array as="points">
              <mxPoint x="735" y="706" />
            </Array>
          </mxGeometry>
        </mxCell>
        <mxCell id="2nvxnJHDYDKnR72fFEk4-37" value="SPSO" style="swimlane;html=1;startSize=20;fontColor=#000000;" vertex="1" parent="2nvxnJHDYDKnR72fFEk4-1">
          <mxGeometry x="470" y="20" width="680" height="730" as="geometry" />
        </mxCell>
        <mxCell id="2nvxnJHDYDKnR72fFEk4-49" value="" style="ellipse;html=1;shape=startState;fillColor=#000000;strokeColor=#000000;" vertex="1" parent="2nvxnJHDYDKnR72fFEk4-37">
          <mxGeometry x="245" y="40" width="30" height="30" as="geometry" />
        </mxCell>
        <mxCell id="2nvxnJHDYDKnR72fFEk4-50" value="Click on &quot;History&quot;" style="rounded=1;arcSize=10;whiteSpace=wrap;html=1;align=center;" vertex="1" parent="2nvxnJHDYDKnR72fFEk4-37">
          <mxGeometry x="210" y="110" width="100" height="40" as="geometry" />
        </mxCell>
        <mxCell id="2nvxnJHDYDKnR72fFEk4-48" style="edgeStyle=orthogonalEdgeStyle;rounded=0;orthogonalLoop=1;jettySize=auto;html=1;" edge="1" parent="2nvxnJHDYDKnR72fFEk4-37" source="2nvxnJHDYDKnR72fFEk4-49" target="2nvxnJHDYDKnR72fFEk4-50">
          <mxGeometry relative="1" as="geometry" />
        </mxCell>
        <mxCell id="2nvxnJHDYDKnR72fFEk4-55" value="Choose one/some student(s)" style="rounded=1;arcSize=10;whiteSpace=wrap;html=1;align=center;" vertex="1" parent="2nvxnJHDYDKnR72fFEk4-37">
          <mxGeometry x="554" y="321.5" width="100" height="40" as="geometry" />
        </mxCell>
        <mxCell id="2nvxnJHDYDKnR72fFEk4-79" style="edgeStyle=orthogonalEdgeStyle;rounded=0;orthogonalLoop=1;jettySize=auto;html=1;exitX=0.5;exitY=1;exitDx=0;exitDy=0;entryX=0.5;entryY=0;entryDx=0;entryDy=0;" edge="1" parent="2nvxnJHDYDKnR72fFEk4-37" target="2nvxnJHDYDKnR72fFEk4-52">
          <mxGeometry relative="1" as="geometry">
            <mxPoint x="604.0689655172414" y="540.5" as="targetPoint" />
            <mxPoint x="604" y="500.4999999999998" as="sourcePoint" />
            <Array as="points">
              <mxPoint x="604" y="530.5" />
              <mxPoint x="514" y="530.5" />
            </Array>
          </mxGeometry>
        </mxCell>
        <mxCell id="2nvxnJHDYDKnR72fFEk4-56" value="Choose one/some printer(s)" style="rounded=1;arcSize=10;whiteSpace=wrap;html=1;align=center;" vertex="1" parent="2nvxnJHDYDKnR72fFEk4-37">
          <mxGeometry x="554" y="461.5" width="100" height="40" as="geometry" />
        </mxCell>
        <mxCell id="2nvxnJHDYDKnR72fFEk4-75" style="edgeStyle=orthogonalEdgeStyle;rounded=0;orthogonalLoop=1;jettySize=auto;html=1;exitX=1;exitY=0.5;exitDx=0;exitDy=0;exitPerimeter=0;entryX=0.5;entryY=0;entryDx=0;entryDy=0;" edge="1" parent="2nvxnJHDYDKnR72fFEk4-37" source="2nvxnJHDYDKnR72fFEk4-73">
          <mxGeometry relative="1" as="geometry">
            <mxPoint x="604" y="320.5" as="targetPoint" />
          </mxGeometry>
        </mxCell>
        <mxCell id="2nvxnJHDYDKnR72fFEk4-73" value="" style="strokeWidth=2;html=1;shape=mxgraph.flowchart.decision;whiteSpace=wrap;" vertex="1" parent="2nvxnJHDYDKnR72fFEk4-37">
          <mxGeometry x="494" y="270.5" width="40" height="40" as="geometry" />
        </mxCell>
        <mxCell id="2nvxnJHDYDKnR72fFEk4-78" style="edgeStyle=orthogonalEdgeStyle;rounded=0;orthogonalLoop=1;jettySize=auto;html=1;exitX=1;exitY=0.5;exitDx=0;exitDy=0;exitPerimeter=0;entryX=0.5;entryY=0;entryDx=0;entryDy=0;" edge="1" parent="2nvxnJHDYDKnR72fFEk4-37" source="2nvxnJHDYDKnR72fFEk4-76">
          <mxGeometry relative="1" as="geometry">
            <mxPoint x="604" y="460.4999999999998" as="targetPoint" />
          </mxGeometry>
        </mxCell>
        <mxCell id="2nvxnJHDYDKnR72fFEk4-80" style="edgeStyle=orthogonalEdgeStyle;rounded=0;orthogonalLoop=1;jettySize=auto;html=1;exitX=0.5;exitY=1;exitDx=0;exitDy=0;exitPerimeter=0;entryX=0.5;entryY=0;entryDx=0;entryDy=0;" edge="1" parent="2nvxnJHDYDKnR72fFEk4-37" source="2nvxnJHDYDKnR72fFEk4-76" target="2nvxnJHDYDKnR72fFEk4-52">
          <mxGeometry relative="1" as="geometry">
            <mxPoint x="513.7241379310344" y="540.5" as="targetPoint" />
          </mxGeometry>
        </mxCell>
        <mxCell id="2nvxnJHDYDKnR72fFEk4-76" value="" style="strokeWidth=2;html=1;shape=mxgraph.flowchart.decision;whiteSpace=wrap;" vertex="1" parent="2nvxnJHDYDKnR72fFEk4-37">
          <mxGeometry x="494" y="410.5" width="40" height="40" as="geometry" />
        </mxCell>
        <mxCell id="2nvxnJHDYDKnR72fFEk4-52" value="View printing history" style="rounded=1;arcSize=10;whiteSpace=wrap;html=1;align=center;" vertex="1" parent="2nvxnJHDYDKnR72fFEk4-37">
          <mxGeometry x="459" y="560.5" width="110" height="40" as="geometry" />
        </mxCell>
        <mxCell id="2nvxnJHDYDKnR72fFEk4-81" style="edgeStyle=orthogonalEdgeStyle;rounded=0;orthogonalLoop=1;jettySize=auto;html=1;exitX=0.5;exitY=1;exitDx=0;exitDy=0;exitPerimeter=0;entryX=0.5;entryY=0;entryDx=0;entryDy=0;entryPerimeter=0;" edge="1" parent="2nvxnJHDYDKnR72fFEk4-37" source="2nvxnJHDYDKnR72fFEk4-73" target="2nvxnJHDYDKnR72fFEk4-76">
          <mxGeometry relative="1" as="geometry" />
        </mxCell>
        <mxCell id="2nvxnJHDYDKnR72fFEk4-83" value="Filter student" style="text;html=1;align=center;verticalAlign=middle;resizable=0;points=[];autosize=1;strokeColor=none;fillColor=none;" vertex="1" parent="2nvxnJHDYDKnR72fFEk4-37">
          <mxGeometry x="524" y="268.5" width="90" height="30" as="geometry" />
        </mxCell>
        <mxCell id="2nvxnJHDYDKnR72fFEk4-84" value="Filter printer" style="text;html=1;align=center;verticalAlign=middle;resizable=0;points=[];autosize=1;strokeColor=none;fillColor=none;" vertex="1" parent="2nvxnJHDYDKnR72fFEk4-37">
          <mxGeometry x="523" y="406.5" width="90" height="30" as="geometry" />
        </mxCell>
        <mxCell id="2nvxnJHDYDKnR72fFEk4-85" value="Do not filter &lt;br&gt;student" style="text;html=1;align=center;verticalAlign=middle;resizable=0;points=[];autosize=1;strokeColor=none;fillColor=none;" vertex="1" parent="2nvxnJHDYDKnR72fFEk4-37">
          <mxGeometry x="440" y="321.5" width="80" height="40" as="geometry" />
        </mxCell>
        <mxCell id="2nvxnJHDYDKnR72fFEk4-86" value="Do not filter &lt;br&gt;printer" style="text;html=1;align=center;verticalAlign=middle;resizable=0;points=[];autosize=1;strokeColor=none;fillColor=none;" vertex="1" parent="2nvxnJHDYDKnR72fFEk4-37">
          <mxGeometry x="440" y="461.5" width="80" height="40" as="geometry" />
        </mxCell>
        <mxCell id="2nvxnJHDYDKnR72fFEk4-120" style="edgeStyle=orthogonalEdgeStyle;rounded=0;orthogonalLoop=1;jettySize=auto;html=1;entryX=0.499;entryY=0.412;entryDx=0;entryDy=0;entryPerimeter=0;" edge="1" parent="2nvxnJHDYDKnR72fFEk4-37" source="2nvxnJHDYDKnR72fFEk4-88" target="2nvxnJHDYDKnR72fFEk4-90">
          <mxGeometry relative="1" as="geometry" />
        </mxCell>
        <mxCell id="2nvxnJHDYDKnR72fFEk4-88" value="Choose &quot;Export&quot;" style="rounded=1;arcSize=10;whiteSpace=wrap;html=1;align=center;" vertex="1" parent="2nvxnJHDYDKnR72fFEk4-37">
          <mxGeometry x="105" y="271.5" width="100" height="40" as="geometry" />
        </mxCell>
        <mxCell id="2nvxnJHDYDKnR72fFEk4-99" style="edgeStyle=orthogonalEdgeStyle;rounded=0;orthogonalLoop=1;jettySize=auto;html=1;exitX=0.25;exitY=0.5;exitDx=0;exitDy=0;exitPerimeter=0;entryX=0.5;entryY=0;entryDx=0;entryDy=0;" edge="1" parent="2nvxnJHDYDKnR72fFEk4-37" source="2nvxnJHDYDKnR72fFEk4-90">
          <mxGeometry relative="1" as="geometry">
            <mxPoint x="105" y="353.5000000000002" as="sourcePoint" />
            <mxPoint x="105" y="413.4999999999998" as="targetPoint" />
          </mxGeometry>
        </mxCell>
        <mxCell id="2nvxnJHDYDKnR72fFEk4-100" style="edgeStyle=orthogonalEdgeStyle;rounded=0;orthogonalLoop=1;jettySize=auto;html=1;exitX=0.75;exitY=0.5;exitDx=0;exitDy=0;exitPerimeter=0;" edge="1" parent="2nvxnJHDYDKnR72fFEk4-37" target="2nvxnJHDYDKnR72fFEk4-91" source="2nvxnJHDYDKnR72fFEk4-90">
          <mxGeometry relative="1" as="geometry">
            <mxPoint x="205" y="353.5000000000002" as="sourcePoint" />
            <Array as="points">
              <mxPoint x="205" y="389" />
              <mxPoint x="255" y="389" />
            </Array>
          </mxGeometry>
        </mxCell>
        <mxCell id="2nvxnJHDYDKnR72fFEk4-90" value="" style="shape=line;html=1;strokeWidth=6;strokeColor=#000000;fontColor=#000000;" vertex="1" parent="2nvxnJHDYDKnR72fFEk4-37">
          <mxGeometry x="55" y="339.5" width="200" height="10" as="geometry" />
        </mxCell>
        <mxCell id="2nvxnJHDYDKnR72fFEk4-91" value="Export manually" style="rounded=1;arcSize=10;whiteSpace=wrap;html=1;align=center;" vertex="1" parent="2nvxnJHDYDKnR72fFEk4-37">
          <mxGeometry x="205" y="404.5" width="100" height="40" as="geometry" />
        </mxCell>
        <mxCell id="2nvxnJHDYDKnR72fFEk4-105" style="edgeStyle=orthogonalEdgeStyle;rounded=0;orthogonalLoop=1;jettySize=auto;html=1;exitX=0.5;exitY=1;exitDx=0;exitDy=0;" edge="1" parent="2nvxnJHDYDKnR72fFEk4-37" source="2nvxnJHDYDKnR72fFEk4-92">
          <mxGeometry relative="1" as="geometry">
            <mxPoint x="105" y="453.4999999999998" as="sourcePoint" />
            <mxPoint x="105" y="493" as="targetPoint" />
          </mxGeometry>
        </mxCell>
        <mxCell id="2nvxnJHDYDKnR72fFEk4-92" value="Generate automatically" style="rounded=1;arcSize=10;whiteSpace=wrap;html=1;align=center;" vertex="1" parent="2nvxnJHDYDKnR72fFEk4-37">
          <mxGeometry x="55" y="404.5" width="100" height="40" as="geometry" />
        </mxCell>
        <mxCell id="2nvxnJHDYDKnR72fFEk4-102" value="Set date and other options" style="rounded=1;arcSize=10;whiteSpace=wrap;html=1;align=center;" vertex="1" parent="2nvxnJHDYDKnR72fFEk4-37">
          <mxGeometry x="55" y="494" width="100" height="40" as="geometry" />
        </mxCell>
        <mxCell id="2nvxnJHDYDKnR72fFEk4-106" value="" style="shape=line;html=1;strokeWidth=6;strokeColor=#000000;fontColor=#000000;" vertex="1" parent="2nvxnJHDYDKnR72fFEk4-37">
          <mxGeometry x="55" y="579.5" width="200" height="10" as="geometry" />
        </mxCell>
        <mxCell id="2nvxnJHDYDKnR72fFEk4-108" style="edgeStyle=orthogonalEdgeStyle;rounded=0;orthogonalLoop=1;jettySize=auto;html=1;exitX=0.5;exitY=1;exitDx=0;exitDy=0;entryX=0.75;entryY=0.5;entryDx=0;entryDy=0;entryPerimeter=0;" edge="1" parent="2nvxnJHDYDKnR72fFEk4-37" source="2nvxnJHDYDKnR72fFEk4-91">
          <mxGeometry relative="1" as="geometry">
            <mxPoint x="205" y="583.4999999999998" as="targetPoint" />
            <Array as="points">
              <mxPoint x="255" y="559" />
              <mxPoint x="205" y="559" />
            </Array>
          </mxGeometry>
        </mxCell>
        <mxCell id="2nvxnJHDYDKnR72fFEk4-109" value="" style="shape=line;html=1;strokeWidth=6;strokeColor=#000000;fontColor=#000000;" vertex="1" parent="2nvxnJHDYDKnR72fFEk4-37">
          <mxGeometry x="55" y="636" width="400" height="10" as="geometry" />
        </mxCell>
        <mxCell id="Rfo5jSRt0oPbGYVdWTdz-14" style="edgeStyle=orthogonalEdgeStyle;rounded=0;orthogonalLoop=1;jettySize=auto;html=1;exitX=0.25;exitY=0.5;exitDx=0;exitDy=0;exitPerimeter=0;entryX=0.5;entryY=0;entryDx=0;entryDy=0;" edge="1" parent="2nvxnJHDYDKnR72fFEk4-37" source="2nvxnJHDYDKnR72fFEk4-115" target="2nvxnJHDYDKnR72fFEk4-88">
          <mxGeometry relative="1" as="geometry" />
        </mxCell>
        <mxCell id="2nvxnJHDYDKnR72fFEk4-115" value="" style="shape=line;html=1;strokeWidth=6;strokeColor=#000000;fontColor=#000000;" vertex="1" parent="2nvxnJHDYDKnR72fFEk4-37">
          <mxGeometry x="55" y="230" width="400" height="10" as="geometry" />
        </mxCell>
        <mxCell id="2nvxnJHDYDKnR72fFEk4-117" style="edgeStyle=orthogonalEdgeStyle;rounded=0;orthogonalLoop=1;jettySize=auto;html=1;exitX=0.75;exitY=0.5;exitDx=0;exitDy=0;exitPerimeter=0;entryX=0.5;entryY=0;entryDx=0;entryDy=0;entryPerimeter=0;" edge="1" parent="2nvxnJHDYDKnR72fFEk4-37" source="2nvxnJHDYDKnR72fFEk4-115" target="2nvxnJHDYDKnR72fFEk4-73">
          <mxGeometry relative="1" as="geometry">
            <Array as="points">
              <mxPoint x="355" y="256" />
              <mxPoint x="514" y="256" />
            </Array>
          </mxGeometry>
        </mxCell>
        <mxCell id="2nvxnJHDYDKnR72fFEk4-123" style="edgeStyle=orthogonalEdgeStyle;rounded=0;orthogonalLoop=1;jettySize=auto;html=1;exitX=0.5;exitY=1;exitDx=0;exitDy=0;entryX=0.5;entryY=0;entryDx=0;entryDy=0;entryPerimeter=0;" edge="1" parent="2nvxnJHDYDKnR72fFEk4-37" source="2nvxnJHDYDKnR72fFEk4-55" target="2nvxnJHDYDKnR72fFEk4-76">
          <mxGeometry relative="1" as="geometry" />
        </mxCell>
        <mxCell id="Rfo5jSRt0oPbGYVdWTdz-11" style="edgeStyle=orthogonalEdgeStyle;rounded=0;orthogonalLoop=1;jettySize=auto;html=1;exitX=0.5;exitY=0;exitDx=0;exitDy=0;exitPerimeter=0;entryX=1;entryY=0.5;entryDx=0;entryDy=0;" edge="1" parent="2nvxnJHDYDKnR72fFEk4-37" source="Rfo5jSRt0oPbGYVdWTdz-2" target="2nvxnJHDYDKnR72fFEk4-91">
          <mxGeometry relative="1" as="geometry" />
        </mxCell>
        <mxCell id="Rfo5jSRt0oPbGYVdWTdz-2" value="" style="strokeWidth=2;html=1;shape=mxgraph.flowchart.decision;whiteSpace=wrap;" vertex="1" parent="2nvxnJHDYDKnR72fFEk4-37">
          <mxGeometry x="335" y="560.5" width="40" height="40" as="geometry" />
        </mxCell>
        <mxCell id="Rfo5jSRt0oPbGYVdWTdz-5" style="edgeStyle=orthogonalEdgeStyle;rounded=0;orthogonalLoop=1;jettySize=auto;html=1;exitX=0;exitY=0.5;exitDx=0;exitDy=0;entryX=1;entryY=0.5;entryDx=0;entryDy=0;entryPerimeter=0;" edge="1" parent="2nvxnJHDYDKnR72fFEk4-37" source="2nvxnJHDYDKnR72fFEk4-52" target="Rfo5jSRt0oPbGYVdWTdz-2">
          <mxGeometry relative="1" as="geometry" />
        </mxCell>
        <mxCell id="Rfo5jSRt0oPbGYVdWTdz-6" style="edgeStyle=orthogonalEdgeStyle;rounded=0;orthogonalLoop=1;jettySize=auto;html=1;exitX=0.5;exitY=1;exitDx=0;exitDy=0;exitPerimeter=0;entryX=0.75;entryY=0.5;entryDx=0;entryDy=0;entryPerimeter=0;" edge="1" parent="2nvxnJHDYDKnR72fFEk4-37" source="Rfo5jSRt0oPbGYVdWTdz-2" target="2nvxnJHDYDKnR72fFEk4-109">
          <mxGeometry relative="1" as="geometry" />
        </mxCell>
        <mxCell id="Rfo5jSRt0oPbGYVdWTdz-10" value="Do not export" style="text;html=1;align=center;verticalAlign=middle;resizable=0;points=[];autosize=1;strokeColor=none;fillColor=none;" vertex="1" parent="2nvxnJHDYDKnR72fFEk4-37">
          <mxGeometry x="345" y="599" width="100" height="30" as="geometry" />
        </mxCell>
        <mxCell id="Rfo5jSRt0oPbGYVdWTdz-12" value="Export" style="text;html=1;align=center;verticalAlign=middle;resizable=0;points=[];autosize=1;strokeColor=none;fillColor=none;" vertex="1" parent="2nvxnJHDYDKnR72fFEk4-37">
          <mxGeometry x="346" y="466.5" width="60" height="30" as="geometry" />
        </mxCell>
        <mxCell id="Rfo5jSRt0oPbGYVdWTdz-15" style="edgeStyle=orthogonalEdgeStyle;rounded=0;orthogonalLoop=1;jettySize=auto;html=1;entryX=0.25;entryY=0.5;entryDx=0;entryDy=0;entryPerimeter=0;exitX=0.502;exitY=0.581;exitDx=0;exitDy=0;exitPerimeter=0;" edge="1" parent="2nvxnJHDYDKnR72fFEk4-37" source="2nvxnJHDYDKnR72fFEk4-106" target="2nvxnJHDYDKnR72fFEk4-109">
          <mxGeometry relative="1" as="geometry" />
        </mxCell>
      </root>
    </mxGraphModel>
  </diagram>
</mxfile>
